<svg width="581" height="354" viewBox="0 0 581 354" fill="none" xmlns="http://www.w3.org/2000/svg">
<g filter="url(#filter0_i_2262_6819)">
<path d="M438.587 8.28873C504.907 3.71087 562.382 53.763 566.96 120.083C569.673 159.392 553.193 195.592 525.51 219.513L538.457 317.506L458.542 248.173C457.422 248.282 456.296 248.377 455.165 248.456L136.661 270.441C70.3412 275.019 12.8668 224.967 8.28897 158.646C3.71111 92.3263 53.7633 34.8519 120.083 30.274L438.587 8.28873Z" fill="url(#paint0_linear_2262_6819)"/>
</g>
<g filter="url(#filter1_i_2262_6819)">
<path d="M206.121 182.85L205.56 182.092C204.529 180.903 204.053 179.536 204.132 177.992C204.277 176.442 204.944 175.152 206.133 174.122L252.158 134.57C252.224 134.565 252.255 134.529 252.249 134.462C252.244 134.396 252.175 134.368 252.042 134.378L211.569 137.58C210.04 137.7 208.666 137.241 207.447 136.2C206.228 135.16 205.558 133.875 205.437 132.347C205.316 130.818 205.776 129.444 206.816 128.225C207.857 127.006 209.141 126.336 210.67 126.215L263.704 122.02C265.233 121.899 266.607 122.359 267.826 123.4C269.045 124.44 269.715 125.725 269.836 127.253L269.97 128.948C270.269 132.736 269.013 135.878 266.201 138.374L250.723 151.937L250.73 152.037C250.736 152.103 250.805 152.131 250.938 152.121L251.037 152.113C252.632 151.987 254.091 152.674 255.414 154.174C256.731 155.608 258.043 158.246 259.35 162.088C260.575 165.736 261.756 167.984 262.892 168.83C264.096 169.671 266.326 169.963 269.582 169.705C271.377 169.563 273.49 169.229 275.923 168.702C277.502 168.377 278.957 168.596 280.288 169.36C281.614 170.058 282.468 171.127 282.849 172.568L282.965 172.76C283.418 174.262 283.232 175.714 282.407 177.117C281.581 178.52 280.415 179.415 278.907 179.801C274.901 180.72 271.668 181.277 269.209 181.471C263.095 181.955 258.499 181.349 255.423 179.653C252.351 178.023 250.069 174.96 248.577 170.464C247.362 166.949 246.238 164.563 245.202 163.308C244.233 162.047 243.117 161.466 241.854 161.566C240.592 161.666 238.699 162.685 236.178 164.623C233.722 166.556 226.36 172.823 214.091 183.423C212.902 184.454 211.499 184.899 209.883 184.759C208.339 184.681 207.085 184.044 206.121 182.85ZM219.586 103.24C230.391 103.723 242.187 103.626 254.973 102.949C256.507 102.895 257.884 103.388 259.103 104.428C260.317 105.402 260.984 106.654 261.105 108.182L261.136 108.581C261.257 110.109 260.798 111.483 259.757 112.702C258.783 113.916 257.529 114.551 255.995 114.605C244.206 115.203 231.868 115.209 218.982 114.624C217.437 114.545 216.117 113.914 215.02 112.73C213.99 111.541 213.514 110.174 213.592 108.63C213.671 107.086 214.305 105.798 215.494 104.768C216.678 103.671 218.042 103.162 219.586 103.24ZM307.074 174.464C305.546 174.585 304.172 174.125 302.953 173.085C301.734 172.044 301.063 170.76 300.943 169.231L300.501 163.648C300.38 162.12 300.84 160.746 301.88 159.527C302.921 158.308 304.205 157.638 305.734 157.517L310.32 157.154C311.848 157.033 313.222 157.493 314.441 158.533C315.66 159.574 316.33 160.858 316.451 162.387L316.893 167.969C317.014 169.498 316.554 170.872 315.513 172.091C314.473 173.31 313.189 173.98 311.66 174.101L307.074 174.464ZM338.227 172C336.698 172.121 335.325 171.661 334.105 170.621C332.886 169.58 332.216 168.296 332.095 166.767L331.654 161.184C331.533 159.656 331.993 158.282 333.033 157.063C334.073 155.844 335.358 155.174 336.887 155.053L341.472 154.69C343.001 154.569 344.375 155.029 345.594 156.069C346.813 157.11 347.483 158.394 347.604 159.923L348.045 165.505C348.166 167.034 347.707 168.408 346.666 169.627C345.626 170.846 344.341 171.516 342.813 171.637L338.227 172ZM373.545 150.986C371.787 151.059 370.246 150.561 368.92 149.49C367.59 148.355 366.823 146.913 366.619 145.166L363.955 111.482C364.036 107.557 366.011 105.278 369.88 104.646C371.697 104.502 373.303 104.996 374.699 106.126C376.154 107.186 376.954 108.625 377.097 110.443L379.762 144.126C379.84 145.949 379.28 147.528 378.079 148.864C376.874 150.135 375.362 150.842 373.545 150.986ZM382.723 162.995C382.867 164.812 382.212 166.431 380.757 167.852C379.302 169.274 377.471 170.071 375.264 170.246C373.058 170.42 371.124 169.92 369.464 168.745C367.803 167.571 366.901 166.075 366.758 164.257C366.609 162.375 367.262 160.724 368.717 159.302C370.172 157.881 372.003 157.083 374.209 156.909C376.416 156.734 378.349 157.234 380.01 158.409C381.67 159.584 382.575 161.112 382.723 162.995Z" fill="#003CFF"/>
</g>
<defs>
<filter id="filter0_i_2262_6819" x="7.99829" y="7.99805" width="561.252" height="311.508" filterUnits="userSpaceOnUse" color-interpolation-filters="sRGB">
<feFlood flood-opacity="0" result="BackgroundImageFix"/>
<feBlend mode="normal" in="SourceGraphic" in2="BackgroundImageFix" result="shape"/>
<feColorMatrix in="SourceAlpha" type="matrix" values="0 0 0 0 0 0 0 0 0 0 0 0 0 0 0 0 0 0 127 0" result="hardAlpha"/>
<feOffset dx="2" dy="2"/>
<feGaussianBlur stdDeviation="10"/>
<feComposite in2="hardAlpha" operator="arithmetic" k2="-1" k3="1"/>
<feColorMatrix type="matrix" values="0 0 0 0 0.182692 0 0 0 0 0.179179 0 0 0 0 0.179179 0 0 0 0.3 0"/>
<feBlend mode="normal" in2="shape" result="effect1_innerShadow_2262_6819"/>
</filter>
<filter id="filter1_i_2262_6819" x="198.03" y="90.4897" width="185.44" height="100.099" filterUnits="userSpaceOnUse" color-interpolation-filters="sRGB">
<feFlood flood-opacity="0" result="BackgroundImageFix"/>
<feBlend mode="normal" in="SourceGraphic" in2="BackgroundImageFix" result="shape"/>
<feColorMatrix in="SourceAlpha" type="matrix" values="0 0 0 0 0 0 0 0 0 0 0 0 0 0 0 0 0 0 127 0" result="hardAlpha"/>
<feOffset dy="4"/>
<feGaussianBlur stdDeviation="2"/>
<feComposite in2="hardAlpha" operator="arithmetic" k2="-1" k3="1"/>
<feColorMatrix type="matrix" values="0 0 0 0 0 0 0 0 0 0.855769 0 0 0 0 0.613301 0 0 0 0.25 0"/>
<feBlend mode="normal" in2="shape" result="effect1_innerShadow_2262_6819"/>
</filter>
<linearGradient id="paint0_linear_2262_6819" x1="6.50001" y1="107" x2="580" y2="252.5" gradientUnits="userSpaceOnUse">
<stop stop-color="white"/>
<stop offset="1" stop-color="#C7C7C7"/>
</linearGradient>
</defs>
</svg>
