<svg width="581" height="354" viewBox="0 0 581 354" fill="none" xmlns="http://www.w3.org/2000/svg">
<g filter="url(#filter0_i_2261_6813)">
<path d="M438.982 8.6857C505.302 4.10784 562.776 54.16 567.354 120.48C570.068 159.789 553.588 195.989 525.905 219.91L538.851 317.903L458.937 248.57C457.816 248.679 456.69 248.774 455.56 248.853L137.056 270.838C70.7357 275.416 13.2614 225.363 8.6835 159.043C4.10564 92.7232 54.1578 35.2489 120.478 30.671L438.982 8.6857Z" fill="url(#paint0_linear_2261_6813)"/>
</g>
<g filter="url(#filter1_i_2261_6813)">
<path d="M107.07 129.865C106.912 127.866 107.458 126.135 108.707 124.671C110.022 123.13 111.679 122.281 113.678 122.122L121.602 121.496C121.675 119.694 122.306 118.135 123.495 116.82C124.821 115.422 126.484 114.644 128.483 114.486C130.416 114.405 132.112 114.953 133.57 116.131C134.879 117.249 135.709 118.656 136.059 120.352L146.446 119.531C146.519 117.729 147.15 116.17 148.339 114.855C149.666 113.457 151.328 112.679 153.327 112.521C155.26 112.44 156.956 112.988 158.414 114.166C159.724 115.284 160.553 116.691 160.903 118.387L163.366 118.192C168.238 118.023 172.381 119.096 175.797 121.412C179.208 123.656 181.754 126.328 183.436 129.428C185.118 132.528 186.088 135.72 186.348 139.004C186.619 142.43 186.168 145.807 184.994 149.132C183.892 152.452 181.8 155.527 178.72 158.357C175.705 161.11 171.696 162.648 166.692 162.972L156.626 163.768C154.627 163.926 152.893 163.345 151.424 162.024C149.889 160.781 149.042 159.16 148.884 157.161C148.726 155.162 149.271 153.43 150.52 151.967C151.835 150.426 153.492 149.576 155.491 149.418L166.2 148.571C167.556 148.464 168.629 147.948 169.418 147.024C170.273 146.022 170.869 144.933 171.207 143.757C171.539 142.51 171.658 141.279 171.562 140.065C171.471 138.923 171.167 137.798 170.648 136.689C170.124 135.51 169.364 134.528 168.368 133.745C167.438 132.885 166.292 132.472 164.929 132.508L162.038 132.737C161.789 136.851 159.608 139.251 155.495 139.935C153.497 140.093 151.729 139.551 150.194 138.307C148.671 137.206 147.8 135.731 147.581 133.88L137.194 134.702L140.353 174.646C140.264 178.963 138.091 181.469 133.836 182.165C131.837 182.323 130.037 181.819 128.436 180.653C126.901 179.409 126.054 177.788 125.896 175.789L122.737 135.845L114.813 136.472C112.814 136.63 111.079 136.049 109.61 134.729C108.075 133.485 107.228 131.864 107.07 129.865ZM232.474 133.631L202.49 136.003C200.919 136.127 199.488 135.737 198.195 134.834C196.968 133.853 196.29 132.542 196.16 130.9C196.234 127.302 198.042 125.184 201.584 124.544L232.96 122.063L234.567 121.936C237.499 121.776 240.143 122.5 242.497 124.11C244.917 125.643 246.904 127.605 248.458 129.996C250.012 132.388 251.221 134.95 252.084 137.684C252.941 140.346 253.479 143.069 253.699 145.853C253.999 149.637 253.721 153.394 252.867 157.126C252.007 160.786 250.405 164.145 248.061 167.204C245.711 170.192 242.545 171.951 238.564 172.481L234.709 172.786L214.577 174.378C212.935 174.508 211.5 174.083 210.273 173.102C209.046 172.122 208.335 170.849 208.14 169.284C208.214 165.686 210.058 163.565 213.671 162.92L234.66 161.26C236.862 160.942 238.617 159.977 239.926 158.365C241.307 156.747 242.204 154.916 242.617 152.872C243.101 150.822 243.262 148.762 243.098 146.692C242.934 144.621 242.455 142.648 241.66 140.771C240.93 138.817 239.757 137.15 238.139 135.769C236.587 134.312 234.699 133.599 232.474 133.631ZM286.592 101.226C288.553 101.502 290.131 102.383 291.327 103.869C292.587 105.278 293.148 106.921 293.01 108.8L292.936 109.237L307.822 108.06C309.821 107.902 311.585 108.409 313.114 109.581C314.584 110.901 315.392 112.49 315.539 114.346C315.685 116.202 315.134 117.862 313.885 119.326L334.874 117.666C336.873 117.507 338.637 118.014 340.167 119.187C341.636 120.507 342.444 122.095 342.591 123.952C342.744 125.879 342.16 127.578 340.839 129.047C339.584 130.439 337.957 131.215 335.958 131.373L312.613 133.219C310.614 133.377 308.886 132.868 307.428 131.69C305.893 130.446 305.049 128.861 304.896 126.933C304.755 125.148 305.274 123.527 306.451 122.069L291.673 123.238L287.88 163.839C287.066 168.07 284.502 170.176 280.191 170.158C278.163 169.959 276.481 169.123 275.143 167.648C273.805 166.173 273.238 164.458 273.443 162.502L277.002 124.398L271.434 124.839C269.435 124.997 267.703 124.451 266.24 123.202C264.699 121.887 263.855 120.302 263.708 118.445C263.561 116.589 264.113 114.929 265.362 113.465C266.682 111.996 268.342 111.182 270.341 111.024L278.266 110.397L278.572 107.464C278.848 105.502 279.765 103.921 281.322 102.72C282.879 101.52 284.636 101.022 286.592 101.226ZM295.724 152.658C295.377 151.896 295.166 151.05 295.093 150.122C294.94 148.195 295.489 146.499 296.738 145.035C298.053 143.494 299.674 142.648 301.601 142.495C303.6 142.337 305.032 142.727 305.896 143.664C306.755 144.53 307.669 145.643 308.639 147.003C309.834 148.489 311.473 149.689 313.557 150.601C315.641 151.514 318.045 151.935 320.769 151.863L338.545 150.457C340.55 150.37 342.251 150.99 343.649 152.316C345.113 153.565 345.921 155.153 346.074 157.081C346.149 158.943 345.559 160.57 344.305 161.962C343.121 163.349 341.568 164.154 339.647 164.378L318.229 166.072C313.138 166.187 308.766 164.953 305.113 162.368C301.46 159.784 298.978 157.466 297.666 155.414L295.724 152.658ZM357.359 148.538L373.067 127.791L372.652 122.544L360.979 123.467C358.98 123.625 357.213 123.082 355.678 121.839C354.209 120.518 353.395 118.859 353.237 116.86C353.079 114.861 353.622 113.094 354.865 111.559C356.186 110.089 357.845 109.275 359.844 109.117L371.517 108.194L371.051 102.304C370.97 100.371 371.557 98.7083 372.812 97.316C374.061 95.8522 375.646 95.0084 377.568 94.7846C379.567 94.6265 381.334 95.1692 382.869 96.4127C384.399 97.5848 385.278 99.1675 385.508 101.161L386.567 114.547C390.763 109.474 395.134 106.613 399.681 105.966L404.286 105.602C409.36 105.273 413.58 105.945 416.945 107.618C420.376 109.215 423.162 111.293 425.304 113.853C427.512 116.337 429.136 119.154 430.175 122.304C431.215 125.455 431.853 128.529 432.09 131.528C432.406 135.526 432.003 139.509 430.88 143.477C429.829 147.439 427.777 151.014 424.724 154.201C421.666 157.316 418.352 159.015 414.783 159.297L413.39 159.407C413.176 159.424 412.781 159.42 412.204 159.393C408.849 159.659 405.717 159.116 402.808 157.766C399.9 156.416 397.635 154.583 396.016 152.269C394.467 149.949 393.572 147.254 393.329 144.184C393.114 141.471 393.383 138.971 394.136 136.685C394.884 134.327 396.258 132.171 398.258 130.217C400.325 128.185 403.033 127.001 406.383 126.665L415.592 125.936C414.671 124.285 413.375 122.879 411.702 121.718C409.739 120.508 407.395 119.939 404.671 120.011L401.03 120.299C398.328 120.657 395.328 122.69 392.03 126.399C390.446 128.177 389.063 129.759 387.879 131.145L389.76 154.919C389.918 156.918 389.301 158.655 387.909 160.13C386.583 161.528 384.92 162.306 382.921 162.464C378.61 162.446 376.07 160.312 375.303 156.062L374.719 148.673L368.393 157.255C367.418 158.554 366.308 159.503 365.063 160.105C363.888 160.701 362.342 160.679 360.424 160.041C358.577 159.397 357.223 158.175 356.362 156.375C355.502 154.575 355.391 152.716 356.029 150.798C356.39 149.907 356.833 149.154 357.359 148.538ZM416.003 140.666L416.969 137.896C417.132 137.237 417.296 136.577 417.459 135.918L407.607 136.697C406.827 136.83 406.172 137.17 405.64 137.715C405.174 138.182 404.83 138.82 404.606 139.628C404.454 140.43 404.389 140.974 404.412 141.26C404.463 141.902 404.621 142.537 404.886 143.162C405.222 143.782 405.657 144.286 406.191 144.675C406.796 145.058 407.494 145.255 408.285 145.264L410.212 145.111C412.997 144.891 414.927 143.41 416.003 140.666ZM458.133 135.179C456.2 135.26 454.504 134.712 453.046 133.534C451.582 132.285 450.739 130.699 450.515 128.777L447.584 91.7251C447.674 87.4077 449.846 84.9012 454.101 84.2054C456.1 84.0473 457.867 84.59 459.402 85.8335C461.003 87 461.883 88.5827 462.041 90.5816L464.972 127.634C465.058 129.639 464.441 131.376 463.121 132.845C461.795 134.243 460.132 135.021 458.133 135.179ZM468.229 148.389C468.388 150.388 467.666 152.169 466.066 153.732C464.465 155.296 462.452 156.173 460.024 156.365C457.597 156.557 455.47 156.007 453.644 154.715C451.817 153.423 450.825 151.777 450.667 149.778C450.503 147.708 451.222 145.891 452.822 144.327C454.423 142.764 456.437 141.886 458.864 141.694C461.291 141.502 463.418 142.053 465.244 143.345C467.071 144.637 468.066 146.319 468.229 148.389Z" fill="#003CFF"/>
</g>
<defs>
<filter id="filter0_i_2261_6813" x="8.39282" y="8.39551" width="561.252" height="311.507" filterUnits="userSpaceOnUse" color-interpolation-filters="sRGB">
<feFlood flood-opacity="0" result="BackgroundImageFix"/>
<feBlend mode="normal" in="SourceGraphic" in2="BackgroundImageFix" result="shape"/>
<feColorMatrix in="SourceAlpha" type="matrix" values="0 0 0 0 0 0 0 0 0 0 0 0 0 0 0 0 0 0 127 0" result="hardAlpha"/>
<feOffset dx="2" dy="2"/>
<feGaussianBlur stdDeviation="15"/>
<feComposite in2="hardAlpha" operator="arithmetic" k2="-1" k3="1"/>
<feColorMatrix type="matrix" values="0 0 0 0 1 0 0 0 0 0.583333 0 0 0 0 0 0 0 0 0.15 0"/>
<feBlend mode="normal" in2="shape" result="effect1_innerShadow_2261_6813"/>
</filter>
<filter id="filter1_i_2261_6813" x="105.639" y="83.4941" width="363.175" height="104.557" filterUnits="userSpaceOnUse" color-interpolation-filters="sRGB">
<feFlood flood-opacity="0" result="BackgroundImageFix"/>
<feBlend mode="normal" in="SourceGraphic" in2="BackgroundImageFix" result="shape"/>
<feColorMatrix in="SourceAlpha" type="matrix" values="0 0 0 0 0 0 0 0 0 0 0 0 0 0 0 0 0 0 127 0" result="hardAlpha"/>
<feOffset dy="4"/>
<feGaussianBlur stdDeviation="2"/>
<feComposite in2="hardAlpha" operator="arithmetic" k2="-1" k3="1"/>
<feColorMatrix type="matrix" values="0 0 0 0 0 0 0 0 0 0.855769 0 0 0 0 0.613301 0 0 0 0.25 0"/>
<feBlend mode="normal" in2="shape" result="effect1_innerShadow_2261_6813"/>
</filter>
<linearGradient id="paint0_linear_2261_6813" x1="27.537" y1="61.9363" x2="483.948" y2="297.447" gradientUnits="userSpaceOnUse">
<stop stop-color="#FFFDEF"/>
<stop offset="1" stop-color="#FFF7BC"/>
</linearGradient>
</defs>
</svg>
